<mxfile host="app.diagrams.net" modified="2023-09-25T23:25:23.208Z" agent="Mozilla/5.0 (X11; Linux x86_64; rv:109.0) Gecko/20100101 Firefox/117.0" etag="oDZ3hiSB_MS2poS-L2Eu" version="21.8.2" type="device">
  <diagram name="Page-1" id="ICP0ctSxJjjSyt0eNi7v">
    <mxGraphModel dx="1017" dy="746" grid="1" gridSize="10" guides="1" tooltips="1" connect="1" arrows="1" fold="1" page="1" pageScale="1" pageWidth="850" pageHeight="1100" math="0" shadow="0">
      <root>
        <mxCell id="0" />
        <mxCell id="1" parent="0" />
        <mxCell id="BK_FExKdsq8p01qH25eq-1" value="Server FaÃ§ade" style="rounded=0;whiteSpace=wrap;html=1;" vertex="1" parent="1">
          <mxGeometry x="250" y="130" width="340" height="60" as="geometry" />
        </mxCell>
        <mxCell id="BK_FExKdsq8p01qH25eq-2" value="Mediator" style="whiteSpace=wrap;html=1;" vertex="1" parent="1">
          <mxGeometry x="320" y="240" width="200" height="200" as="geometry" />
        </mxCell>
        <mxCell id="BK_FExKdsq8p01qH25eq-3" value="Streams Listener" style="whiteSpace=wrap;html=1;" vertex="1" parent="1">
          <mxGeometry x="570" y="315" width="70" height="50" as="geometry" />
        </mxCell>
        <mxCell id="BK_FExKdsq8p01qH25eq-5" value="Core Streamer" style="whiteSpace=wrap;html=1;" vertex="1" parent="1">
          <mxGeometry x="690" y="320" width="80" height="40" as="geometry" />
        </mxCell>
        <mxCell id="BK_FExKdsq8p01qH25eq-6" value="Query Evalautor" style="whiteSpace=wrap;html=1;" vertex="1" parent="1">
          <mxGeometry x="230" y="490" width="380" height="60" as="geometry" />
        </mxCell>
        <mxCell id="BK_FExKdsq8p01qH25eq-7" value="Ring Tuple Queue" style="whiteSpace=wrap;html=1;" vertex="1" parent="1">
          <mxGeometry x="76" y="490" width="120" height="60" as="geometry" />
        </mxCell>
        <mxCell id="BK_FExKdsq8p01qH25eq-8" value="CORE Client" style="whiteSpace=wrap;html=1;" vertex="1" parent="1">
          <mxGeometry x="370" y="620" width="100" height="30" as="geometry" />
        </mxCell>
        <mxCell id="BK_FExKdsq8p01qH25eq-9" value="Tuple Schemas" style="whiteSpace=wrap;html=1;" vertex="1" parent="1">
          <mxGeometry x="20" y="395" width="100" height="20" as="geometry" />
        </mxCell>
        <mxCell id="BK_FExKdsq8p01qH25eq-10" value="Catalog" style="whiteSpace=wrap;html=1;" vertex="1" parent="1">
          <mxGeometry x="160" y="380" width="110" height="50" as="geometry" />
        </mxCell>
        <mxCell id="BK_FExKdsq8p01qH25eq-11" value="Router" style="whiteSpace=wrap;html=1;" vertex="1" parent="1">
          <mxGeometry x="160" y="240" width="120" height="100" as="geometry" />
        </mxCell>
        <mxCell id="BK_FExKdsq8p01qH25eq-12" value="Parser" style="whiteSpace=wrap;html=1;" vertex="1" parent="1">
          <mxGeometry x="60" y="275" width="60" height="30" as="geometry" />
        </mxCell>
        <mxCell id="BK_FExKdsq8p01qH25eq-13" value="CORE Client" style="whiteSpace=wrap;html=1;" vertex="1" parent="1">
          <mxGeometry x="115" y="170" width="90" height="30" as="geometry" />
        </mxCell>
        <mxCell id="BK_FExKdsq8p01qH25eq-14" value="" style="endArrow=classic;html=1;rounded=0;exitX=0.5;exitY=1;exitDx=0;exitDy=0;entryX=0;entryY=0;entryDx=0;entryDy=0;" edge="1" parent="1" source="BK_FExKdsq8p01qH25eq-13" target="BK_FExKdsq8p01qH25eq-11">
          <mxGeometry width="50" height="50" relative="1" as="geometry">
            <mxPoint x="370" y="560" as="sourcePoint" />
            <mxPoint x="450" y="590" as="targetPoint" />
          </mxGeometry>
        </mxCell>
        <mxCell id="BK_FExKdsq8p01qH25eq-15" value="" style="endArrow=classic;html=1;rounded=0;exitX=0.5;exitY=0;exitDx=0;exitDy=0;entryX=0.5;entryY=1;entryDx=0;entryDy=0;" edge="1" parent="1" source="BK_FExKdsq8p01qH25eq-8" target="BK_FExKdsq8p01qH25eq-6">
          <mxGeometry width="50" height="50" relative="1" as="geometry">
            <mxPoint x="400" y="640" as="sourcePoint" />
            <mxPoint x="450" y="590" as="targetPoint" />
          </mxGeometry>
        </mxCell>
        <mxCell id="BK_FExKdsq8p01qH25eq-18" value="" style="endArrow=open;html=1;endSize=12;startArrow=diamondThin;startSize=14;startFill=1;edgeStyle=orthogonalEdgeStyle;align=left;verticalAlign=bottom;rounded=0;exitX=0;exitY=0.5;exitDx=0;exitDy=0;entryX=1;entryY=0.5;entryDx=0;entryDy=0;" edge="1" parent="1" source="BK_FExKdsq8p01qH25eq-6" target="BK_FExKdsq8p01qH25eq-7">
          <mxGeometry x="-1" y="3" relative="1" as="geometry">
            <mxPoint x="160" y="600" as="sourcePoint" />
            <mxPoint x="320" y="600" as="targetPoint" />
          </mxGeometry>
        </mxCell>
        <mxCell id="BK_FExKdsq8p01qH25eq-19" value="" style="endArrow=open;html=1;endSize=12;startArrow=diamondThin;startSize=14;startFill=1;edgeStyle=orthogonalEdgeStyle;align=left;verticalAlign=bottom;rounded=0;exitX=0.5;exitY=1;exitDx=0;exitDy=0;" edge="1" parent="1" source="BK_FExKdsq8p01qH25eq-11">
          <mxGeometry x="-1" y="3" relative="1" as="geometry">
            <mxPoint x="90" y="710" as="sourcePoint" />
            <mxPoint x="220" y="380" as="targetPoint" />
          </mxGeometry>
        </mxCell>
        <mxCell id="BK_FExKdsq8p01qH25eq-20" value="" style="endArrow=open;html=1;endSize=12;startArrow=diamondThin;startSize=14;startFill=1;edgeStyle=orthogonalEdgeStyle;align=left;verticalAlign=bottom;rounded=0;exitX=1;exitY=0.5;exitDx=0;exitDy=0;entryX=0;entryY=0.25;entryDx=0;entryDy=0;" edge="1" parent="1" source="BK_FExKdsq8p01qH25eq-11" target="BK_FExKdsq8p01qH25eq-2">
          <mxGeometry x="-1" y="3" relative="1" as="geometry">
            <mxPoint x="100" y="720" as="sourcePoint" />
            <mxPoint x="260" y="720" as="targetPoint" />
          </mxGeometry>
        </mxCell>
        <mxCell id="BK_FExKdsq8p01qH25eq-22" value="" style="endArrow=open;html=1;endSize=12;startArrow=diamondThin;startSize=14;startFill=1;edgeStyle=orthogonalEdgeStyle;align=left;verticalAlign=bottom;rounded=0;" edge="1" parent="1">
          <mxGeometry x="-1" y="3" relative="1" as="geometry">
            <mxPoint x="80" y="490" as="sourcePoint" />
            <mxPoint x="80" y="415" as="targetPoint" />
          </mxGeometry>
        </mxCell>
        <mxCell id="BK_FExKdsq8p01qH25eq-24" value="" style="endArrow=open;html=1;endSize=12;startArrow=diamondThin;startSize=14;startFill=0;edgeStyle=orthogonalEdgeStyle;align=left;verticalAlign=bottom;rounded=0;exitX=0;exitY=0.1;exitDx=0;exitDy=0;exitPerimeter=0;" edge="1" parent="1" source="BK_FExKdsq8p01qH25eq-2">
          <mxGeometry x="-1" y="3" relative="1" as="geometry">
            <mxPoint x="50" y="630" as="sourcePoint" />
            <mxPoint x="280" y="260" as="targetPoint" />
          </mxGeometry>
        </mxCell>
        <mxCell id="BK_FExKdsq8p01qH25eq-25" value="" style="endArrow=open;html=1;endSize=12;startArrow=diamondThin;startSize=14;startFill=0;edgeStyle=orthogonalEdgeStyle;align=left;verticalAlign=bottom;rounded=0;exitX=0.5;exitY=1;exitDx=0;exitDy=0;entryX=0.5;entryY=0;entryDx=0;entryDy=0;" edge="1" parent="1" source="BK_FExKdsq8p01qH25eq-2" target="BK_FExKdsq8p01qH25eq-6">
          <mxGeometry x="-1" y="3" relative="1" as="geometry">
            <mxPoint x="60" y="640" as="sourcePoint" />
            <mxPoint x="220" y="640" as="targetPoint" />
          </mxGeometry>
        </mxCell>
        <mxCell id="BK_FExKdsq8p01qH25eq-26" value="" style="endArrow=open;html=1;endSize=12;startArrow=diamondThin;startSize=14;startFill=0;edgeStyle=orthogonalEdgeStyle;align=left;verticalAlign=bottom;rounded=0;exitX=0.5;exitY=1;exitDx=0;exitDy=0;entryX=0.5;entryY=0;entryDx=0;entryDy=0;" edge="1" parent="1" source="BK_FExKdsq8p01qH25eq-1" target="BK_FExKdsq8p01qH25eq-2">
          <mxGeometry x="-1" y="3" relative="1" as="geometry">
            <mxPoint x="70" y="650" as="sourcePoint" />
            <mxPoint x="230" y="650" as="targetPoint" />
          </mxGeometry>
        </mxCell>
        <mxCell id="BK_FExKdsq8p01qH25eq-27" value="" style="endArrow=open;html=1;endSize=12;startArrow=diamondThin;startSize=14;startFill=0;edgeStyle=orthogonalEdgeStyle;align=left;verticalAlign=bottom;rounded=0;exitX=0;exitY=0.5;exitDx=0;exitDy=0;entryX=1;entryY=0.5;entryDx=0;entryDy=0;" edge="1" parent="1" source="BK_FExKdsq8p01qH25eq-10" target="BK_FExKdsq8p01qH25eq-9">
          <mxGeometry x="-1" y="3" relative="1" as="geometry">
            <mxPoint x="80" y="660" as="sourcePoint" />
            <mxPoint x="240" y="660" as="targetPoint" />
          </mxGeometry>
        </mxCell>
        <mxCell id="BK_FExKdsq8p01qH25eq-29" value="" style="endArrow=classic;html=1;rounded=0;entryX=0;entryY=0.5;entryDx=0;entryDy=0;exitX=1;exitY=1;exitDx=0;exitDy=0;" edge="1" parent="1">
          <mxGeometry width="50" height="50" relative="1" as="geometry">
            <mxPoint x="280" y="321" as="sourcePoint" />
            <mxPoint x="320" y="321" as="targetPoint" />
          </mxGeometry>
        </mxCell>
        <mxCell id="BK_FExKdsq8p01qH25eq-30" value="" style="endArrow=open;html=1;endSize=12;startArrow=diamondThin;startSize=14;startFill=1;edgeStyle=orthogonalEdgeStyle;align=left;verticalAlign=bottom;rounded=0;exitX=0;exitY=0.5;exitDx=0;exitDy=0;entryX=1;entryY=0.5;entryDx=0;entryDy=0;" edge="1" parent="1">
          <mxGeometry x="-1" y="3" relative="1" as="geometry">
            <mxPoint x="570" y="332" as="sourcePoint" />
            <mxPoint x="520" y="332" as="targetPoint" />
          </mxGeometry>
        </mxCell>
        <mxCell id="BK_FExKdsq8p01qH25eq-31" value="" style="endArrow=classic;html=1;rounded=0;entryX=1;entryY=0.6;entryDx=0;entryDy=0;entryPerimeter=0;" edge="1" parent="1">
          <mxGeometry width="50" height="50" relative="1" as="geometry">
            <mxPoint x="570" y="352" as="sourcePoint" />
            <mxPoint x="520" y="352" as="targetPoint" />
          </mxGeometry>
        </mxCell>
        <mxCell id="BK_FExKdsq8p01qH25eq-32" value="" style="endArrow=classic;html=1;rounded=0;exitX=0;exitY=0.5;exitDx=0;exitDy=0;entryX=1;entryY=0.5;entryDx=0;entryDy=0;" edge="1" parent="1" source="BK_FExKdsq8p01qH25eq-5" target="BK_FExKdsq8p01qH25eq-3">
          <mxGeometry width="50" height="50" relative="1" as="geometry">
            <mxPoint x="460" y="770" as="sourcePoint" />
            <mxPoint x="530" y="770" as="targetPoint" />
          </mxGeometry>
        </mxCell>
        <mxCell id="BK_FExKdsq8p01qH25eq-34" value="" style="endArrow=classic;html=1;rounded=0;entryX=1;entryY=0.5;entryDx=0;entryDy=0;exitX=0;exitY=0.5;exitDx=0;exitDy=0;" edge="1" parent="1" source="BK_FExKdsq8p01qH25eq-11" target="BK_FExKdsq8p01qH25eq-12">
          <mxGeometry width="50" height="50" relative="1" as="geometry">
            <mxPoint x="160" y="265" as="sourcePoint" />
            <mxPoint x="540" y="780" as="targetPoint" />
          </mxGeometry>
        </mxCell>
      </root>
    </mxGraphModel>
  </diagram>
</mxfile>
